<svg width="200" height="200" viewBox="0 0 200 200" fill="none" xmlns="http://www.w3.org/2000/svg">
<rect width="200" height="200" rx="100" fill="white"/>
<path d="M39.9993 78.1386V138.346C39.9993 140.102 40.9208 141.73 42.4268 142.633L96.2503 174.927C97.8337 175.878 99.8119 175.878 101.395 174.927L155.219 142.633C156.725 141.73 157.646 140.102 157.646 138.346V78.281C157.646 76.4415 156.636 74.7507 155.017 73.8786L127.058 58.8239V23.5298L42.4439 73.8409C40.9282 74.7422 39.9993 76.3752 39.9993 78.1386Z" fill="#042B48"/>
<path fill-rule="evenodd" clip-rule="evenodd" d="M75.2945 98.8232C68.797 98.8232 63.5298 104.09 63.5298 110.588C63.5298 117.085 68.797 122.353 75.2945 122.353C80.1188 122.353 84.2648 119.449 86.0803 115.294H113.92C115.735 119.449 119.881 122.353 124.706 122.353C131.203 122.353 136.47 117.085 136.47 110.588C136.47 104.09 131.203 98.8232 124.706 98.8232C119.881 98.8232 115.735 101.727 113.92 105.882H86.0803C84.2648 101.727 80.1188 98.8232 75.2945 98.8232Z" fill="white"/>
</svg>
